HIERARCHY
ROOT SpineBase
{
  OFFSET 0.000000 0.000000 0.000000
  CHANNELS 6 Xposition Yposition Zposition Zrotation Xrotation Yrotation
  JOINT SpineMid
  {
    OFFSET 0.000000 30.311116 0.000000
    CHANNELS 3 Zrotation Xrotation Yrotation
    JOINT SpineShoulder
    {
      OFFSET 0.071606 22.485329 -0.632615
      CHANNELS 3 Zrotation Xrotation Yrotation
      JOINT Neck
      {
        OFFSET 0.024846 7.420128 -0.504020
        CHANNELS 3 Zrotation Xrotation Yrotation
        JOINT Head
        {
          OFFSET -0.763371 14.792850 -0.372319
          CHANNELS 3 Zrotation Xrotation Yrotation
          End Site
          {
            OFFSET 0 0 0
          }
        }
      }
      JOINT ShoulderLeft
      {
        OFFSET -17.743622 -3.523213 0.132539
        CHANNELS 3 Zrotation Xrotation Yrotation
        JOINT ElbowLeft
        {
          OFFSET -5.665557 -25.362822 -0.219761
          CHANNELS 3 Zrotation Xrotation Yrotation
          JOINT WristLeft
          {
            OFFSET 0.237720 -20.868393 -6.036546
            CHANNELS 3 Zrotation Xrotation Yrotation
            JOINT HandLeft
            {
              OFFSET -1.413236 -6.030098 -1.963575
              CHANNELS 3 Zrotation Xrotation Yrotation
              JOINT HandTipLeft
              {
                OFFSET -1.702016 -5.968124 -0.773216
                CHANNELS 3 Zrotation Xrotation Yrotation
                End Site
                {
                  OFFSET 0 0 0
                }
              }
              JOINT ThumbLeft
              {
                OFFSET 2.265153 -0.519667 0.421591
                CHANNELS 3 Zrotation Xrotation Yrotation
                End Site
                {
                  OFFSET 0 0 0
                }
              }
            }
          }
        }
      }
      JOINT ShoulderRight
      {
        OFFSET 18.751195 -4.460183 -2.157754
        CHANNELS 3 Zrotation Xrotation Yrotation
        JOINT ElbowRight
        {
          OFFSET 20.698467 -0.552712 -10.449567
          CHANNELS 3 Zrotation Xrotation Yrotation
          JOINT WristRight
          {
            OFFSET -1.892331 23.664582 -5.373721
            CHANNELS 3 Zrotation Xrotation Yrotation
            JOINT HandRight
            {
              OFFSET -0.794747 9.088667 -1.835160
              CHANNELS 3 Zrotation Xrotation Yrotation
              JOINT HandTipRight
              {
                OFFSET -1.434676 6.827091 4.838128
                CHANNELS 3 Zrotation Xrotation Yrotation
                End Site
                {
                  OFFSET 0 0 0
                }
              }
              JOINT ThumbRight
              {
                OFFSET 0.871369 6.294101 4.446098
                CHANNELS 3 Zrotation Xrotation Yrotation
                End Site
                {
                  OFFSET 0 0 0
                }
              }
            }
          }
        }
      }
    }
  }
  JOINT HipLeft
  {
    OFFSET -7.843944 0.214744 -2.989082
    CHANNELS 3 Zrotation Xrotation Yrotation
    JOINT KneeLeft
    {
      OFFSET -1.890076 -34.888589 7.395868
      CHANNELS 3 Zrotation Xrotation Yrotation
      JOINT AnkleLeft
      {
        OFFSET -0.454730 -33.288990 5.026372
        CHANNELS 3 Zrotation Xrotation Yrotation
        JOINT FootLeft
        {
          OFFSET -0.973150 -4.121033 -11.000438
          CHANNELS 3 Zrotation Xrotation Yrotation
          End Site
          {
            OFFSET 0 0 0
          }
        }
      }
    }
  }
  JOINT HipRight
  {
    OFFSET 7.621118 0.592594 -3.636291
    CHANNELS 3 Zrotation Xrotation Yrotation
    JOINT KneeRight
    {
      OFFSET 2.061683 -34.704016 5.764588
      CHANNELS 3 Zrotation Xrotation Yrotation
      JOINT AnkleRight
      {
        OFFSET 0.748841 -34.163357 4.667948
        CHANNELS 3 Zrotation Xrotation Yrotation
        JOINT FootRight
        {
          OFFSET 6.088417 -8.421755 -1.771776
          CHANNELS 3 Zrotation Xrotation Yrotation
          End Site
          {
            OFFSET 0 0 0
          }
        }
      }
    }
  }
}
MOTION
Frames: 14
Frame Time: 0.033333
13.944738 78.799736 390.000958 1.184613 0.495369 13.407358 0.271458 -0.593898 -13.359316 0.445586 -0.096098 0.095352 5.801316 0.234078 0.043123 0.000000 0.000000 0.000000 1.895938 -0.087943 -0.127000 -6.126716 -10.602745 0.317686 36.499789 14.852550 -21.787331 -1.055014 -18.941096 18.071506 0.000000 0.000000 0.000000 0.000000 0.000000 0.000000 -5.590409 -2.353978 42.981970 11.992885 -9.580667 -39.942386 11.596032 -5.750615 2.554505 -24.656890 -53.579482 -29.499258 0.000000 0.000000 0.000000 0.000000 0.000000 0.000000 -0.041021 2.521867 -13.480536 -0.557245 -2.939322 0.026694 -4.308868 -9.328412 16.771156 0.000000 0.000000 0.000000 -0.900215 -1.378746 -13.367983 -0.628014 1.055008 -0.035926 -14.328375 23.171313 23.771076 0.000000 0.000000 0.000000
13.710984 79.038562 390.089614 1.546733 0.434287 16.585599 -0.374423 -0.635186 -16.545131 1.017185 0.097923 0.118758 7.377675 0.788940 0.035454 0.000000 0.000000 0.000000 1.271561 -0.126435 -0.123962 -3.608758 -8.065066 -0.136946 40.797931 15.451493 -25.258094 -7.092498 -20.133705 19.025464 0.000000 0.000000 0.000000 0.000000 0.000000 0.000000 -7.279376 -4.302089 52.879367 13.445502 -22.290561 -47.643875 5.042495 -2.585796 0.450016 -22.448798 -55.352113 -34.709500 0.000000 0.000000 0.000000 0.000000 0.000000 0.000000 0.257826 3.334217 -16.668608 -0.839236 -3.703524 -0.004304 -4.680818 -12.230912 20.371401 0.000000 0.000000 0.000000 -0.961139 -1.571532 -16.484190 -1.072061 1.348051 -0.085596 -23.655948 28.776429 34.845539 0.000000 0.000000 0.000000
13.484805 79.053175 390.196493 1.851235 0.340639 19.491313 -0.880144 -0.565408 -19.454115 1.466466 0.282894 0.134069 8.555385 1.742977 -0.006144 0.000000 0.000000 0.000000 0.439419 -0.248735 -0.102679 0.789676 -3.774494 -1.139281 42.586405 13.185092 -25.601938 -8.689816 -17.553258 19.066572 0.000000 0.000000 0.000000 0.000000 0.000000 0.000000 -8.318447 -6.060564 61.936634 10.023804 -36.229413 -55.869247 -1.540975 -0.467781 -0.870820 -19.713004 -47.519006 -33.737979 0.000000 0.000000 0.000000 0.000000 0.000000 0.000000 0.628162 4.041308 -19.591309 -1.091986 -4.359622 -0.036450 -5.038592 -12.595021 21.924674 0.000000 0.000000 0.000000 -0.932017 -1.783478 -19.318227 -1.563293 1.656001 -0.139157 -33.545247 30.285459 44.190045 0.000000 0.000000 0.000000
13.338844 78.880379 390.308102 2.123123 0.241679 21.754104 -1.167563 -0.401169 -21.714523 1.748241 0.448694 0.144501 8.854208 2.937643 -0.068520 0.000000 0.000000 0.000000 -0.536174 -0.489308 -0.074120 6.534653 1.635243 -2.844135 43.042785 8.930763 -23.389480 -8.997831 -12.936204 18.348146 0.000000 0.000000 0.000000 0.000000 0.000000 0.000000 -8.290248 -6.603057 70.948330 -3.001718 -47.951880 -69.198970 -6.031647 -0.359646 -0.927038 -21.284860 -41.261153 -34.655320 0.000000 0.000000 0.000000 0.000000 0.000000 0.000000 0.793080 4.575131 -21.890494 -1.158929 -4.784464 -0.034431 -5.411396 -10.311282 21.060676 0.000000 0.000000 0.000000 -0.956397 -1.897198 -21.525882 -1.931411 1.881899 -0.177981 -39.870720 30.579657 50.264055 0.000000 0.000000 0.000000
13.180498 78.449058 390.430276 2.248303 0.120974 23.299673 -1.244657 -0.251212 -23.255889 1.836772 0.516599 0.147708 8.900608 4.982093 -0.180013 0.000000 0.000000 0.000000 -1.368549 -0.660376 -0.042739 12.914543 6.963186 -5.203606 41.722648 5.936601 -20.541722 -6.303931 -6.933384 16.183749 0.000000 0.000000 0.000000 0.000000 0.000000 0.000000 -8.335560 -7.341759 77.433082 -18.142595 -55.134225 -83.735575 -10.807883 0.536987 -0.574063 -23.536938 -35.302601 -32.372671 0.000000 0.000000 0.000000 0.000000 0.000000 0.000000 0.981909 4.858463 -23.450693 -1.222597 -4.970845 -0.042376 -5.991625 -2.704339 17.254439 0.000000 0.000000 0.000000 -0.736802 -2.031821 -23.000289 -2.365908 2.047778 -0.230059 -46.651940 29.678864 56.109359 0.000000 0.000000 0.000000
13.015048 77.761564 390.556507 2.182595 -0.014934 23.868780 -1.130944 -0.136450 -23.822862 1.732341 0.504060 0.142032 8.708908 7.686647 -0.304615 0.000000 0.000000 0.000000 -1.858770 -0.670573 -0.029045 19.043719 11.490152 -7.840608 38.999971 2.679168 -16.605433 -1.000122 -1.771832 14.229276 0.000000 0.000000 0.000000 0.000000 0.000000 0.000000 -8.563753 -8.822229 81.809527 -28.143607 -58.330807 -94.919431 -15.206287 -0.082675 0.213216 -21.921612 -28.500708 -31.595803 0.000000 0.000000 0.000000 0.000000 0.000000 0.000000 1.127399 4.794624 -24.000825 -1.269363 -4.824682 -0.060469 -5.533602 -0.531394 14.813681 0.000000 0.000000 0.000000 -0.215671 -2.124794 -23.484429 -2.833012 2.062502 -0.298462 -54.562676 28.805994 64.114691 0.000000 0.000000 0.000000
12.867967 77.421031 390.595051 2.014540 0.028985 25.173653 -0.950100 -0.072090 -25.131969 1.477652 0.453986 0.129870 7.726950 9.581044 -0.294194 0.000000 0.000000 0.000000 -1.733048 -0.578848 -0.056873 23.818501 14.891093 -10.193775 36.415754 0.014938 -13.223170 3.596340 2.498128 11.694977 0.000000 0.000000 0.000000 0.000000 0.000000 0.000000 -9.243116 -11.883923 84.363425 -34.479751 -60.435864 -103.871692 -16.754794 2.006827 0.070665 -25.990803 -28.858566 -28.353214 0.000000 0.000000 0.000000 0.000000 0.000000 0.000000 1.335873 4.557217 -25.294776 -0.527849 -4.165724 0.096289 -6.489644 -5.302587 17.648696 0.000000 0.000000 0.000000 0.118212 -2.571442 -24.732672 -3.200164 2.270120 -0.335065 -60.700860 26.814334 69.527730 0.000000 0.000000 0.000000
12.764666 77.202636 390.578927 1.818574 0.126454 25.980526 -0.430267 -0.154997 -25.935427 1.083771 0.336860 0.122717 8.332899 10.431834 -0.341849 0.000000 0.000000 0.000000 -1.659371 -0.592904 -0.076881 26.885303 16.938338 -11.856542 32.623476 -2.721529 -9.719223 11.069567 7.374769 7.251690 0.000000 0.000000 0.000000 0.000000 0.000000 0.000000 -10.299465 -14.906864 84.393104 -35.908512 -64.830308 -108.488555 -22.797545 2.400031 0.700514 -24.425080 -28.753262 -28.188518 0.000000 0.000000 0.000000 0.000000 0.000000 0.000000 1.285624 4.189950 -26.100294 -0.155169 -3.682075 0.163781 -7.471972 -2.012871 17.475472 0.000000 0.000000 0.000000 0.448667 -2.978761 -25.486089 -3.509046 2.381844 -0.370522 -56.545632 27.198061 64.549927 0.000000 0.000000 0.000000
12.568985 76.890015 390.600917 2.073409 0.294039 26.784584 0.557625 -0.336958 -26.709845 0.491137 0.165240 0.137606 6.792588 7.267220 -0.180728 0.000000 0.000000 0.000000 -2.224005 -0.913365 -0.111065 27.761507 17.484476 -12.409116 26.480118 -4.560771 -7.066861 18.203970 9.416929 3.747019 0.000000 0.000000 0.000000 0.000000 0.000000 0.000000 -12.869317 -18.012144 79.638002 -20.659302 -70.257074 -97.403926 -27.178426 2.019476 0.718671 -22.153984 -29.148743 -27.849044 0.000000 0.000000 0.000000 0.000000 0.000000 0.000000 0.945031 3.954947 -26.887294 0.070081 -3.263079 0.195392 -6.146975 0.442713 12.106295 0.000000 0.000000 0.000000 0.430307 -3.206623 -26.220555 -3.882080 2.408785 -0.422645 -44.116579 27.043309 50.402629 0.000000 0.000000 0.000000
12.381693 76.627587 390.612136 2.092181 0.415586 27.484873 0.663004 -0.324667 -27.409960 0.270106 0.090198 0.129258 6.375791 5.988575 -0.101368 0.000000 0.000000 0.000000 -2.115347 -1.021673 -0.105131 25.932090 16.013111 -11.303746 27.128932 -0.471842 -10.470846 16.288013 5.812004 8.296419 0.000000 0.000000 0.000000 0.000000 0.000000 0.000000 -14.259153 -20.344316 77.062129 -2.145941 -71.163282 -83.315933 -28.281108 0.798526 0.155178 -21.082392 -31.171736 -27.979815 0.000000 0.000000 0.000000 0.000000 0.000000 0.000000 0.855047 3.727935 -27.575738 0.311739 -3.017968 0.235741 -7.491781 -6.721732 18.922528 0.000000 0.000000 0.000000 0.565929 -3.403293 -26.868262 -3.879663 1.608107 -0.452625 -31.384151 26.721163 38.088495 0.000000 0.000000 0.000000
12.218666 76.427152 390.609218 2.066183 0.510381 28.116110 0.481082 -0.272420 -28.049340 0.209925 0.064207 0.117574 6.772183 5.202855 -0.054699 0.000000 0.000000 0.000000 -1.851195 -1.058566 -0.086103 25.988755 15.998072 -11.321484 25.403730 0.622412 -10.929909 18.265250 4.875441 9.420478 0.000000 0.000000 0.000000 0.000000 0.000000 0.000000 -16.210968 -22.967928 72.775858 26.657627 -70.488276 -60.192664 -32.114446 -2.868246 -0.501310 -18.178702 -33.928935 -28.869850 0.000000 0.000000 0.000000 0.000000 0.000000 0.000000 0.863719 3.607611 -28.205278 0.520351 -2.987385 0.278661 -5.943670 -10.588578 16.346467 0.000000 0.000000 0.000000 0.650647 -3.574407 -27.467404 -3.915350 1.489407 -0.465600 -19.063995 23.024166 25.681494 0.000000 0.000000 0.000000
12.094223 76.416758 390.556759 1.980401 0.594555 28.495164 0.414843 -0.287815 -28.432700 0.300069 0.088242 0.118123 6.364808 4.838852 -0.026598 0.000000 0.000000 0.000000 -1.821251 -1.124446 -0.083366 26.139962 16.008907 -11.381899 24.083711 1.923279 -11.607672 19.964920 2.958222 11.917449 0.000000 0.000000 0.000000 0.000000 0.000000 0.000000 -17.226143 -24.138525 70.871520 36.077295 -67.759989 -53.328677 -32.806199 -4.932103 -0.985993 -15.360618 -39.341897 -33.613467 0.000000 0.000000 0.000000 0.000000 0.000000 0.000000 0.902098 3.512807 -28.589561 0.702336 -3.082630 0.321812 -4.795719 -16.182777 16.426870 0.000000 0.000000 0.000000 0.697953 -3.696584 -27.837698 -3.795257 1.393510 -0.457164 -5.401542 14.467718 11.460384 0.000000 0.000000 0.000000
12.006775 76.432930 390.493803 1.900173 0.654877 28.927567 0.378928 -0.292115 -28.868626 0.261894 0.068332 0.111732 5.958565 4.618822 -0.001671 0.000000 0.000000 0.000000 -1.689474 -1.144633 -0.073560 26.292030 16.030144 -11.443976 23.499130 2.832330 -12.149921 20.705043 2.031900 13.235748 0.000000 0.000000 0.000000 0.000000 0.000000 0.000000 -17.418765 -24.476676 70.213322 37.351106 -65.882402 -52.790291 -31.960420 -6.667504 -1.008476 -15.010193 -39.310384 -33.767644 0.000000 0.000000 0.000000 0.000000 0.000000 0.000000 0.933598 3.458547 -29.032734 0.846794 -3.132515 0.356981 -3.074471 -24.624659 18.093301 0.000000 0.000000 0.000000 0.678538 -3.863074 -28.272113 -3.677430 1.416164 -0.439404 -1.031233 10.682104 6.936427 0.000000 0.000000 0.000000
12.000120 76.522444 390.428233 1.884661 0.675054 29.135655 0.354582 -0.307745 -29.077388 0.209421 0.024520 0.107911 4.909572 4.736250 0.008818 0.000000 0.000000 0.000000 -1.675252 -1.039820 -0.081196 26.451388 16.012036 -11.455747 23.725051 2.839853 -12.224918 20.258559 0.831459 14.643998 0.000000 0.000000 0.000000 0.000000 0.000000 0.000000 -16.595661 -23.748117 71.654397 28.627951 -64.896286 -59.988491 -28.496682 -7.370538 -0.439874 -17.021717 -39.124767 -33.523418 0.000000 0.000000 0.000000 0.000000 0.000000 0.000000 0.859128 3.553267 -29.273920 1.039355 -3.251056 0.409602 -1.053886 -34.121850 26.451142 0.000000 0.000000 0.000000 0.541708 -3.860612 -28.507527 -3.465187 1.387791 -0.410433 -5.000044 15.308829 11.732093 0.000000 0.000000 0.000000
